<?xml version="1.0" encoding="UTF-8"?>
<svg width="24px" height="24px" viewBox="0 0 24 24" version="1.1" xmlns="http://www.w3.org/2000/svg" xmlns:xlink="http://www.w3.org/1999/xlink">
    <title>Food Icon</title>
    <g id="Food-Icon" stroke="none" stroke-width="1" fill="none" fill-rule="evenodd">
        <path d="M11,9 L9,9 C7.9,9 7,9.9 7,11 L7,17 C7,18.1 7.9,19 9,19 L11,19 C12.1,19 13,18.1 13,17 L13,11 C13,9.9 12.1,9 11,9 Z M11,17 L9,17 L9,11 L11,11 L11,17 Z" fill="#3CB489" fill-rule="nonzero"></path>
        <path d="M15.5,6.5 C15.5,5.7 15.3,4.9 14.9,4.2 C14.5,3.5 13.9,2.9 13.2,2.5 L14.3,1.4 L13.6,0.7 L12,2.3 L10.4,0.7 L9.7,1.4 L10.8,2.5 C10.1,2.9 9.5,3.5 9.1,4.2 C8.7,4.9 8.5,5.7 8.5,6.5 L8.5,8 L15.5,8 L15.5,6.5 Z M10.5,6.5 C10.5,5.7 10.8,4.9 11.4,4.3 C12,3.7 12.8,3.4 13.6,3.4 C14.4,3.4 15.2,3.7 15.8,4.3 C16.1,4.6 16.3,5 16.4,5.4 C16.5,5.8 16.6,6.1 16.5,6.5 L10.5,6.5 Z" fill="#3CB489" fill-rule="nonzero"></path>
        <path d="M17.5,10.5 C17.5,10.2 17.3,10 17,10 C16.7,10 16.5,10.2 16.5,10.5 L16.5,18.5 C16.5,19.9 15.4,21 14,21 L10,21 C8.6,21 7.5,19.9 7.5,18.5 L7.5,10.5 C7.5,10.2 7.3,10 7,10 C6.7,10 6.5,10.2 6.5,10.5 L6.5,18.5 C6.5,20.4 8.1,22 10,22 L14,22 C15.9,22 17.5,20.4 17.5,18.5 L17.5,10.5 Z" fill="#3CB489" fill-rule="nonzero"></path>
    </g>
</svg>
